<svg xmlns="http://www.w3.org/2000/svg" version="1.1" xmlns:xlink="http://www.w3.org/1999/xlink" xmlns:svgjs="http://svgjs.com/svgjs" width="512" height="512" x="0" y="0" viewBox="0 0 509.792 509.792" style="enable-background:new 0 0 512 512" xml:space="preserve" class=""><g><path d="M406.932 201.423 283.651 414.952l192.946-30.954zM317.878 29.906l95.4 117.33 53.91-31.126zM226.141 414.952l-123.28-213.529-69.666 182.575zM131.615 151.619h246.562L254.896 0zM126.067 181.619l128.829 223.138 128.829-223.138zM269.896 447.542v62.25l149.31-86.204zM428.278 173.216l53.91 141.283V142.091zM96.514 147.236l95.4-117.33-149.31 86.204zM81.514 173.216l-53.91-31.125v172.408zM239.896 447.542l-149.31-23.954 149.31 86.204z" fill="#e1e1e1" data-original="#000000" class=""></path></g></svg>
